<svg viewBox="0 0 500 500" fill="none" xmlns="http://www.w3.org/2000/svg">
    <path d="M424.694 161.244C427.782 162.56 431.09 164.798 433.45 168.472C435.7 171.975 436.463 175.808 436.344 179.379L436.308 180.089L436.252 180.85C435.609 188.78 433.04 198.86 429.98 208.825C426.739 219.384 422.622 230.821 418.616 241.294C414.601 251.79 410.648 261.444 407.702 268.468C406.351 271.691 405.207 274.366 404.363 276.324C407.186 290.794 408.987 304.76 406.77 318.12C404.234 333.395 396.698 346.718 382.661 359.322C369.591 371.059 343.043 390.644 311.406 402.901C279.874 415.116 241.031 420.851 205.693 400.971C174.205 383.258 138.209 355.929 118.282 324.004C108.22 307.885 101.766 289.797 102.966 270.768C104.153 251.957 112.721 233.822 129.547 217.172C133.643 210.21 138.531 203.915 144.083 198.31C144.084 198.282 144.086 198.254 144.087 198.225C144.224 194.938 144.441 190.261 144.759 184.672C145.393 173.518 146.436 158.632 148.07 143.888C149.685 129.316 151.947 114.212 155.169 102.932C156.726 97.4824 158.831 91.711 161.937 87.3112C163.518 85.073 165.948 82.3342 169.531 80.5552C173.551 78.5594 178.148 78.2265 182.529 79.7774L182.996 79.948C187.791 81.7712 191.828 85.2384 194.881 88.3219C198.271 91.7454 201.642 95.9435 204.866 100.403C211.328 109.341 217.943 120.365 223.805 130.871C229.701 141.436 234.992 151.758 238.799 159.417C239.877 161.584 240.836 163.544 241.661 165.24C266.998 166.626 293.562 173.837 318.839 187.065C321.758 185.824 325.673 184.185 330.274 182.323C340.452 178.206 354.111 172.946 367.803 168.489C381.242 164.115 395.664 160.191 407.024 159.246C412.434 158.796 419.023 158.827 424.694 161.244ZM410.591 184.062C410.135 184.083 409.637 184.115 409.096 184.16C400.814 184.849 388.723 187.969 375.542 192.26C362.614 196.468 349.545 201.495 339.65 205.499C334.717 207.494 330.605 209.223 327.734 210.449C326.299 211.061 325.176 211.548 324.416 211.879C324.037 212.044 323.748 212.171 323.557 212.255C323.462 212.297 323.391 212.328 323.346 212.348C323.323 212.358 323.307 212.365 323.297 212.369C323.292 212.371 323.289 212.373 323.287 212.374L323.286 212.375L323.285 212.374L317.553 214.919L312.087 211.844C286.053 197.198 258.623 190.164 233.585 189.996L225.675 189.943L222.337 182.77C222.337 182.769 222.335 182.766 222.334 182.763C222.33 182.756 222.324 182.744 222.317 182.727C222.301 182.694 222.277 182.642 222.244 182.571C222.178 182.431 222.078 182.217 221.945 181.936C221.68 181.373 221.284 180.539 220.773 179.471C219.748 177.333 218.258 174.259 216.413 170.546C212.714 163.107 207.614 153.161 201.974 143.054C196.301 132.887 190.234 122.833 184.606 115.05C182.797 112.548 181.108 110.389 179.565 108.589C179.448 108.974 179.328 109.377 179.208 109.798C176.59 118.962 174.504 132.333 172.918 146.642C171.351 160.778 170.339 175.18 169.719 186.092C169.409 191.536 169.199 196.087 169.065 199.27C168.999 200.86 168.952 202.108 168.921 202.953C168.906 203.376 168.895 203.698 168.888 203.912C168.884 204.018 168.882 204.099 168.88 204.15C168.879 204.176 168.879 204.195 168.879 204.207C168.878 204.212 168.879 204.217 168.879 204.219L168.878 204.221L168.715 209.54L164.768 213.11C159.071 218.261 154.233 224.242 150.409 231.039L149.505 232.646L148.175 233.923C134.173 247.376 128.674 260.35 127.917 272.342C127.144 284.596 131.222 297.522 139.489 310.766C156.219 337.569 188.07 362.373 217.95 379.182C243.979 393.825 274.13 390.531 302.375 379.589C330.515 368.687 354.528 350.985 365.958 340.721C376.421 331.326 380.634 322.898 382.107 314.027C383.699 304.435 382.315 293.168 379.094 277.442L378.294 273.536L379.904 269.887C379.905 269.885 379.906 269.883 379.907 269.879C379.91 269.873 379.914 269.862 379.921 269.847C379.934 269.817 379.955 269.77 379.982 269.708C380.038 269.582 380.121 269.392 380.23 269.141C380.449 268.64 380.774 267.895 381.189 266.934C382.019 265.011 383.211 262.226 384.648 258.799C387.525 251.939 391.373 242.54 395.266 232.361C399.169 222.159 403.069 211.3 406.082 201.488C408.191 194.617 409.723 188.697 410.591 184.062Z" fill="#9B9B9B"/>
    <path d="M71.4044 139.782L59.6268 95.828L71.7009 92.5928C82.5437 89.6874 86.1906 80.9822 84.7918 75.7619C83.3929 70.5417 75.882 64.8262 65.0394 67.7315C54.1971 70.6369 50.5508 79.3418 51.9494 84.562C53.7362 91.2304 49.7789 98.0846 43.1106 99.8714C36.4422 101.658 29.588 97.7008 27.8013 91.0325C21.9475 69.1857 37.9369 49.1119 58.5689 43.5833C79.2011 38.0549 103.086 47.4445 108.94 69.2915C113.63 86.7943 104.298 103.157 89.7928 111.816L95.5525 133.312C97.3393 139.98 93.382 146.834 86.7137 148.621C80.0455 150.408 73.1911 146.45 71.4044 139.782Z" fill="#9B9B9B"/>
    <path d="M102.637 163.925C104.27 170.017 100.654 176.279 94.5624 177.911C88.4705 179.544 82.2087 175.928 80.5764 169.836C78.9441 163.744 82.5593 157.483 88.6512 155.85C94.7432 154.218 101.005 157.833 102.637 163.925Z" fill="#9B9B9B"/>
    <path d="M210.597 237.458C213.879 237.584 217.992 237.883 221.215 238.143C222.841 238.274 224.269 238.398 225.291 238.488C225.802 238.534 226.213 238.572 226.497 238.598C226.638 238.611 226.749 238.62 226.824 238.627C226.862 238.631 226.892 238.633 226.912 238.635C226.921 238.636 226.929 238.637 226.934 238.638L226.943 238.638C231.067 239.027 234.096 242.686 233.707 246.81C233.318 250.933 229.66 253.961 225.537 253.573C225.536 253.573 225.534 253.572 225.532 253.572L225.434 253.564C225.365 253.557 225.261 253.547 225.126 253.534C224.855 253.51 224.459 253.474 223.964 253.43C222.972 253.342 221.586 253.221 220.009 253.094C216.825 252.838 212.973 252.56 210.022 252.447C206.681 252.319 202.307 252.317 198.691 252.351C196.899 252.368 195.324 252.392 194.198 252.413C193.635 252.423 193.185 252.433 192.877 252.439C192.723 252.443 192.605 252.446 192.526 252.448C192.486 252.449 192.456 252.449 192.437 252.45C192.427 252.45 192.42 252.45 192.415 252.45C192.413 252.45 192.411 252.45 192.41 252.45L192.024 252.451C188.058 252.347 184.826 249.148 184.728 245.137C184.626 240.996 187.9 237.557 192.041 237.455L192.045 237.455C192.047 237.455 192.049 237.455 192.052 237.455C192.058 237.454 192.067 237.455 192.078 237.454C192.101 237.454 192.134 237.453 192.177 237.452C192.263 237.45 192.388 237.447 192.55 237.443C192.872 237.436 193.339 237.427 193.92 237.416C195.082 237.395 196.704 237.369 198.551 237.351C202.212 237.317 206.881 237.315 210.597 237.458Z" fill="#9B9B9B"/>
    <path d="M297.693 268.133C300.376 270.027 303.662 272.52 306.223 274.494C307.515 275.491 308.644 276.372 309.452 277.005C309.856 277.322 310.179 277.577 310.403 277.754C310.515 277.842 310.602 277.91 310.662 277.957C310.691 277.981 310.715 277.999 310.731 278.012C310.738 278.018 310.744 278.023 310.748 278.026L310.755 278.031C314.001 280.604 314.547 285.323 311.973 288.569C309.4 291.814 304.683 292.359 301.437 289.786C301.436 289.786 301.435 289.784 301.434 289.783L301.356 289.723C301.302 289.68 301.22 289.614 301.113 289.53C300.9 289.362 300.587 289.116 300.196 288.809C299.413 288.195 298.316 287.339 297.063 286.373C294.534 284.422 291.455 282.09 289.042 280.387C286.311 278.459 282.645 276.074 279.594 274.131C278.083 273.169 276.749 272.331 275.793 271.734C275.316 271.436 274.933 271.199 274.671 271.037C274.541 270.956 274.44 270.894 274.372 270.852C274.339 270.832 274.313 270.816 274.297 270.805C274.289 270.8 274.282 270.796 274.279 270.794C274.277 270.793 274.275 270.792 274.275 270.791L273.951 270.581C270.681 268.333 269.715 263.89 271.819 260.473C273.99 256.945 278.61 255.847 282.137 258.018L282.14 258.02C282.142 258.021 282.144 258.022 282.146 258.023C282.152 258.026 282.159 258.032 282.169 258.037C282.188 258.049 282.216 258.067 282.253 258.089C282.326 258.134 282.433 258.2 282.57 258.285C282.844 258.455 283.241 258.702 283.734 259.009C284.719 259.624 286.094 260.487 287.652 261.479C290.74 263.445 294.656 265.988 297.693 268.133Z" fill="#9B9B9B"/>
    <path d="M248.194 282.812C247.199 281.28 244.827 278.008 240.687 277.119L240.281 277.041L239.949 276.99C236.532 276.524 233.487 277.956 232.062 278.686C230.167 279.656 228.332 280.923 226.851 282.039C225.33 283.184 223.971 284.332 223.004 285.179C222.516 285.606 222.116 285.968 221.833 286.227C221.691 286.357 221.578 286.462 221.497 286.537C221.457 286.575 221.424 286.606 221.4 286.629C221.388 286.64 221.378 286.65 221.37 286.657C221.366 286.661 221.362 286.664 221.359 286.667C221.358 286.669 221.356 286.67 221.355 286.671L221.354 286.673C221.354 286.674 221.416 286.741 226.366 291.947L221.352 286.674C218.351 289.528 218.232 294.275 221.086 297.277C223.94 300.278 228.686 300.399 231.688 297.545C231.689 297.544 231.691 297.543 231.692 297.541C231.701 297.533 231.718 297.517 231.741 297.494C231.79 297.449 231.87 297.376 231.974 297.28C232.185 297.087 232.498 296.802 232.888 296.46C233.679 295.767 234.741 294.874 235.875 294.02C236.185 293.787 236.488 293.567 236.779 293.361C236.888 293.63 236.999 293.914 237.11 294.213C237.627 295.612 238.05 297.039 238.348 298.143C238.494 298.686 238.606 299.133 238.679 299.435C238.715 299.585 238.742 299.7 238.758 299.771C238.766 299.805 238.771 299.83 238.774 299.842L238.776 299.845C239.659 303.892 243.655 306.455 247.702 305.572C251.749 304.688 254.313 300.691 253.429 296.644L246.968 298.055C253.429 296.644 253.429 296.643 253.429 296.642L253.428 296.64C253.427 296.638 253.427 296.635 253.427 296.633L253.413 296.572C253.405 296.535 253.394 296.486 253.38 296.425C253.352 296.304 253.313 296.136 253.263 295.927C253.163 295.511 253.018 294.929 252.83 294.235C252.46 292.862 251.904 290.972 251.178 289.01C250.477 287.114 249.497 284.818 248.194 282.812ZM231.683 297.549L231.685 297.548L231.688 297.545C231.685 297.547 231.684 297.548 231.683 297.549Z" fill="#9B9B9B"/>
</svg>
